<?xml version="1.0" encoding="UTF-8" ?>
<!DOCTYPE svg PUBLIC "-//W3C//DTD SVG 1.1//EN" "http://www.w3.org/Graphics/SVG/1.1/DTD/svg11.dtd">
<svg width="32pt" height="32pt" viewBox="0 0 256 256" version="1.1" xmlns="http://www.w3.org/2000/svg">
<path fill="#ffffff" d=" M 0.00 0.00 L 256.00 0.00 L 256.00 256.00 L 0.00 256.00 L 0.00 0.00 Z" />
<path fill="#dac87a" d=" M 76.11 24.98 C 78.98 12.07 92.68 2.11 105.90 5.36 C 106.24 5.56 106.92 5.96 107.25 6.16 C 103.01 6.48 98.60 6.21 94.64 8.01 C 85.05 11.52 79.31 21.35 77.71 31.04 C 77.03 38.16 75.97 45.29 77.02 52.44 C 73.95 43.75 74.23 33.95 76.11 24.98 Z" />
<path fill="#d2b552" d=" M 94.64 8.01 C 98.60 6.21 103.01 6.48 107.25 6.16 C 114.04 7.11 119.49 11.86 125.40 14.98 C 122.43 14.53 119.42 14.55 116.44 14.84 C 111.53 11.65 106.25 8.51 100.17 8.64 C 98.32 8.46 96.48 8.20 94.64 8.01 Z" />
<path fill="#ba9f4d" d=" M 77.71 31.04 C 79.31 21.35 85.05 11.52 94.64 8.01 C 96.48 8.20 98.32 8.46 100.17 8.64 C 93.90 11.19 85.69 14.38 84.94 22.17 C 81.85 28.45 80.97 35.80 82.30 42.65 C 80.01 47.83 82.39 53.01 83.42 58.11 C 82.57 60.42 81.19 62.64 81.54 65.22 C 79.42 61.22 77.73 56.92 77.02 52.44 C 75.97 45.29 77.03 38.16 77.71 31.04 Z" />
<path fill="#c8b781" d=" M 84.94 22.17 C 85.69 14.38 93.90 11.19 100.17 8.64 C 106.25 8.51 111.53 11.65 116.44 14.84 C 119.18 16.69 121.82 18.85 125.12 19.58 C 123.13 19.19 121.71 19.81 120.84 21.43 C 118.12 20.12 115.68 18.33 113.26 16.55 C 109.36 13.14 104.20 10.78 98.93 11.56 C 92.83 12.59 88.38 17.35 84.94 22.17 Z" />
<path fill="#dcc671" d=" M 147.73 10.64 C 153.86 8.52 161.28 9.12 166.47 13.17 C 162.61 12.71 158.90 11.01 154.94 11.84 C 156.31 13.20 157.69 14.54 159.05 15.90 C 158.54 16.01 157.52 16.23 157.00 16.34 C 155.30 15.85 153.55 15.55 151.79 15.33 C 151.32 14.87 150.39 13.96 149.92 13.51 C 144.66 13.88 139.92 16.32 134.98 17.90 C 132.99 18.74 130.94 17.75 129.11 17.00 C 128.78 16.79 128.12 16.38 127.78 16.17 C 135.10 17.80 141.10 12.56 147.73 10.64 Z" />
<path fill="#5a300a" d=" M 84.94 22.17 C 88.38 17.35 92.83 12.59 98.93 11.56 C 104.20 10.78 109.36 13.14 113.26 16.55 L 114.04 17.40 C 109.04 14.31 102.86 11.93 97.00 13.98 C 88.59 17.08 83.90 26.41 84.02 35.03 C 84.11 48.70 89.34 61.69 95.40 73.72 C 94.82 73.62 93.64 73.40 93.05 73.30 C 91.72 72.81 90.42 72.23 89.13 71.64 L 89.28 71.22 C 88.75 65.82 87.38 60.44 84.79 55.64 C 84.05 51.30 83.55 46.90 82.30 42.65 C 80.97 35.80 81.85 28.45 84.94 22.17 Z" />
<path fill="#c8ae51" d=" M 154.94 11.84 C 158.90 11.01 162.61 12.71 166.47 13.17 C 168.39 13.60 169.83 15.09 171.38 16.20 L 171.41 16.39 C 171.42 19.46 173.38 21.95 174.75 24.54 C 171.45 24.46 169.74 21.34 167.68 19.26 C 166.04 17.30 163.82 15.98 161.62 14.76 C 161.98 16.52 162.35 18.29 162.75 20.04 C 160.86 18.76 158.92 17.57 157.00 16.34 C 157.52 16.23 158.54 16.01 159.05 15.90 C 157.69 14.54 156.31 13.20 154.94 11.84 Z" />
<path fill="#ffffff" d=" M 97.00 13.98 C 102.86 11.93 109.04 14.31 114.04 17.40 C 118.07 20.57 122.57 24.02 127.95 24.03 C 136.12 24.44 143.11 19.37 150.92 17.92 C 155.63 17.01 160.36 19.00 163.97 21.92 C 166.04 24.27 168.24 26.62 169.36 29.60 C 171.03 33.33 170.63 37.51 170.44 41.48 C 162.18 46.96 152.81 51.52 146.73 59.62 C 143.88 63.15 140.58 66.29 137.77 69.85 C 135.54 72.63 132.54 74.85 130.98 78.13 C 123.46 78.21 115.94 78.28 108.43 78.11 C 103.77 77.90 99.26 76.32 95.40 73.72 C 89.34 61.69 84.11 48.70 84.02 35.03 C 83.90 26.41 88.59 17.08 97.00 13.98 Z" />
<path fill="#b69d42" d=" M 116.44 14.84 C 119.42 14.55 122.43 14.53 125.40 14.98 C 126.25 15.26 127.04 15.66 127.78 16.17 C 128.12 16.38 128.78 16.79 129.11 17.00 C 130.17 17.73 131.23 18.48 132.27 19.24 C 129.94 19.96 127.51 19.90 125.12 19.58 C 121.82 18.85 119.18 16.69 116.44 14.84 Z" />
<path fill="#d4c7a8" d=" M 134.98 17.90 C 139.92 16.32 144.66 13.88 149.92 13.51 C 150.39 13.96 151.32 14.87 151.79 15.33 C 146.12 16.15 140.96 18.76 135.70 20.87 C 130.90 22.14 125.64 23.39 120.84 21.43 C 121.71 19.81 123.13 19.19 125.12 19.58 C 127.51 19.90 129.94 19.96 132.27 19.24 C 131.23 18.48 130.17 17.73 129.11 17.00 C 130.94 17.75 132.99 18.74 134.98 17.90 Z" />
<path fill="#6e571f" d=" M 135.70 20.87 C 140.96 18.76 146.12 16.15 151.79 15.33 C 153.55 15.55 155.30 15.85 157.00 16.34 C 158.92 17.57 160.86 18.76 162.75 20.04 C 163.15 20.67 163.56 21.30 163.97 21.92 C 160.36 19.00 155.63 17.01 150.92 17.92 C 143.11 19.37 136.12 24.44 127.95 24.03 C 122.57 24.02 118.07 20.57 114.04 17.40 L 113.26 16.55 C 115.68 18.33 118.12 20.12 120.84 21.43 C 125.64 23.39 130.90 22.14 135.70 20.87 Z" />
<path fill="#bb9b3b" d=" M 161.62 14.76 C 163.82 15.98 166.04 17.30 167.68 19.26 C 169.74 21.34 171.45 24.46 174.75 24.54 C 176.60 27.38 176.97 30.78 176.70 34.09 C 175.40 33.91 174.12 33.65 172.85 33.35 C 172.54 35.74 172.29 38.13 171.91 40.51 C 171.54 40.75 170.81 41.24 170.44 41.48 C 170.63 37.51 171.03 33.33 169.36 29.60 C 168.24 26.62 166.04 24.27 163.97 21.92 C 163.56 21.30 163.15 20.67 162.75 20.04 C 162.35 18.29 161.98 16.52 161.62 14.76 Z" />
<path fill="#926e25" d=" M 174.75 24.54 C 173.38 21.95 171.42 19.46 171.41 16.39 C 173.86 19.01 176.37 21.83 177.64 25.23 C 177.71 29.79 178.84 34.27 178.49 38.85 C 176.26 39.24 174.06 39.78 171.91 40.51 C 172.29 38.13 172.54 35.74 172.85 33.35 C 174.12 33.65 175.40 33.91 176.70 34.09 C 176.97 30.78 176.60 27.38 174.75 24.54 Z" />
<path fill="#5d3e0e" d=" M 178.49 38.85 C 178.84 34.27 177.71 29.79 177.64 25.23 C 179.37 29.11 180.80 33.20 181.12 37.47 C 181.16 37.75 181.23 38.32 181.26 38.60 C 180.57 38.66 179.18 38.78 178.49 38.85 Z" />
<path fill="#f04c4c" d=" M 181.12 37.47 C 182.00 39.48 184.56 39.87 186.07 41.29 L 185.95 41.38 L 185.36 41.85 C 185.17 44.76 184.87 47.72 183.58 50.38 C 182.48 52.72 181.02 54.91 180.28 57.40 C 179.93 59.31 181.65 60.68 182.65 62.09 C 180.79 62.41 178.94 62.80 177.12 63.27 C 178.27 67.74 182.01 70.80 185.37 73.68 C 186.45 74.85 188.05 74.66 189.48 74.53 C 189.55 72.84 189.63 71.14 189.73 69.45 C 190.46 70.17 191.19 70.90 191.92 71.63 C 192.86 74.54 194.16 77.31 195.58 80.01 C 195.40 80.63 195.06 81.87 194.88 82.49 C 191.18 80.70 188.31 77.68 184.76 75.63 C 183.34 79.32 179.74 76.93 177.41 75.73 C 173.66 73.95 170.38 71.36 167.76 68.15 C 175.13 63.28 180.66 55.90 183.66 47.62 C 184.20 45.29 185.14 42.51 183.50 40.40 C 179.97 38.83 175.90 39.95 172.56 41.49 C 163.30 46.54 154.71 52.76 146.73 59.62 C 152.81 51.52 162.18 46.96 170.44 41.48 C 170.81 41.24 171.54 40.75 171.91 40.51 C 174.06 39.78 176.26 39.24 178.49 38.85 C 179.18 38.78 180.57 38.66 181.26 38.60 C 181.23 38.32 181.16 37.75 181.12 37.47 Z" />
<path fill="#9c0806" d=" M 172.56 41.49 C 175.90 39.95 179.97 38.83 183.50 40.40 C 185.14 42.51 184.20 45.29 183.66 47.62 C 180.60 47.02 178.34 49.52 175.97 50.98 C 166.10 58.22 155.77 64.77 145.63 71.61 C 141.22 74.63 136.50 77.25 132.59 80.93 C 131.96 80.77 130.71 80.43 130.08 80.26 C 130.31 79.73 130.75 78.66 130.98 78.13 C 132.54 74.85 135.54 72.63 137.77 69.85 C 140.58 66.29 143.88 63.15 146.73 59.62 C 154.71 52.76 163.30 46.54 172.56 41.49 Z" />
<path fill="#a10808" d=" M 183.58 50.38 C 184.87 47.72 185.17 44.76 185.36 41.85 C 190.48 50.65 198.24 57.51 204.48 65.47 C 206.56 68.32 207.50 72.13 210.81 73.90 C 209.79 77.99 207.48 81.57 204.69 84.66 C 203.73 83.61 202.77 82.56 201.74 81.59 C 203.18 78.16 201.96 74.68 201.25 71.28 C 200.92 66.65 196.62 63.59 192.88 61.58 C 193.02 61.06 193.16 60.54 193.31 60.02 C 192.16 59.80 191.01 59.58 189.86 59.37 C 189.56 55.40 186.23 52.92 183.58 50.38 Z" />
<path fill="#800505" d=" M 185.36 41.85 L 185.95 41.38 C 196.06 47.61 203.09 57.59 210.19 66.88 C 211.80 68.85 210.94 71.61 210.81 73.90 C 207.50 72.13 206.56 68.32 204.48 65.47 C 198.24 57.51 190.48 50.65 185.36 41.85 Z" />
<path fill="#997a2e" d=" M 82.30 42.65 C 83.55 46.90 84.05 51.30 84.79 55.64 C 85.21 59.68 86.98 64.23 83.74 67.60 C 83.24 67.25 82.23 66.56 81.73 66.21 L 81.54 65.22 C 81.19 62.64 82.57 60.42 83.42 58.11 C 82.39 53.01 80.01 47.83 82.30 42.65 Z" />
<path fill="#890605" d=" M 175.97 50.98 C 178.34 49.52 180.60 47.02 183.66 47.62 C 180.66 55.90 175.13 63.28 167.76 68.15 C 165.97 69.39 164.13 70.56 162.33 71.78 C 162.04 71.98 161.75 72.18 161.47 72.39 C 152.57 77.07 142.83 81.20 132.59 80.93 C 136.50 77.25 141.22 74.63 145.63 71.61 C 155.77 64.77 166.10 58.22 175.97 50.98 Z" />
<path fill="#bf0d0d" d=" M 180.28 57.40 C 181.02 54.91 182.48 52.72 183.58 50.38 C 186.23 52.92 189.56 55.40 189.86 59.37 C 191.01 59.58 192.16 59.80 193.31 60.02 C 193.16 60.54 193.02 61.06 192.88 61.58 C 196.62 63.59 200.92 66.65 201.25 71.28 C 201.96 74.68 203.18 78.16 201.74 81.59 C 201.02 81.03 200.31 80.47 199.61 79.90 C 197.12 77.08 194.93 73.96 191.92 71.63 C 191.19 70.90 190.46 70.17 189.73 69.45 C 187.32 67.04 184.89 64.65 182.65 62.09 C 181.65 60.68 179.93 59.31 180.28 57.40 Z" />
<path fill="#8d0909" d=" M 47.20 60.22 C 49.42 58.09 51.69 55.57 54.92 55.16 C 58.95 54.24 62.99 55.55 66.66 57.11 C 57.68 61.04 50.18 67.44 43.42 74.41 C 39.57 78.69 33.51 79.05 28.44 81.02 C 34.45 73.88 40.70 66.93 47.20 60.22 Z" />
<path fill="#7d561c" d=" M 84.79 55.64 C 87.38 60.44 88.75 65.82 89.28 71.22 C 87.40 70.05 85.55 68.85 83.74 67.60 C 86.98 64.23 85.21 59.68 84.79 55.64 Z" />
<path fill="#c8393a" d=" M 66.66 57.11 C 68.05 57.87 69.45 58.63 70.83 59.40 C 70.35 60.63 69.87 61.86 69.39 63.09 C 69.12 63.14 68.57 63.22 68.30 63.26 C 66.55 63.68 64.81 64.13 63.11 64.73 C 63.35 63.67 63.59 62.61 63.83 61.55 C 56.60 64.99 51.45 71.33 45.56 76.53 C 43.01 78.59 39.98 79.93 37.14 81.55 C 34.08 80.96 31.01 81.58 28.23 82.92 C 25.61 84.31 25.21 87.23 25.79 89.91 C 26.50 94.06 29.45 97.19 31.30 100.83 C 27.17 98.17 25.03 92.79 24.48 88.00 C 23.85 84.94 26.33 82.76 28.44 81.02 C 33.51 79.05 39.57 78.69 43.42 74.41 C 50.18 67.44 57.68 61.04 66.66 57.11 Z" />
<path fill="#ac0a0a" d=" M 69.39 63.09 C 69.87 61.86 70.35 60.63 70.83 59.40 C 74.50 61.62 78.26 63.69 81.73 66.21 C 82.23 66.56 83.24 67.25 83.74 67.60 C 85.55 68.85 87.40 70.05 89.28 71.22 L 89.13 71.64 C 87.54 73.11 86.07 74.78 85.60 76.96 C 84.04 75.41 82.48 73.86 81.13 72.13 C 80.43 70.46 80.90 67.90 78.97 67.02 C 75.85 65.54 72.58 64.41 69.39 63.09 Z" />
<path fill="#e65859" d=" M 45.56 76.53 C 51.45 71.33 56.60 64.99 63.83 61.55 C 63.59 62.61 63.35 63.67 63.11 64.73 C 60.06 67.20 57.43 70.23 55.97 73.91 C 55.08 76.66 52.48 78.07 50.19 79.49 C 49.96 82.71 55.15 82.48 54.54 85.76 C 48.92 83.72 43.08 82.26 37.14 81.55 C 39.98 79.93 43.01 78.59 45.56 76.53 Z" />
<path fill="#ea6060" d=" M 177.12 63.27 C 178.94 62.80 180.79 62.41 182.65 62.09 C 184.89 64.65 187.32 67.04 189.73 69.45 C 189.63 71.14 189.55 72.84 189.48 74.53 C 188.05 74.66 186.45 74.85 185.37 73.68 C 182.01 70.80 178.27 67.74 177.12 63.27 Z" />
<path fill="#eb3f3f" d=" M 63.11 64.73 C 64.81 64.13 66.55 63.68 68.30 63.26 C 69.69 70.53 66.22 77.26 63.97 83.94 C 63.68 85.29 62.68 86.97 63.83 88.17 C 66.31 90.23 69.35 91.44 72.14 93.00 C 74.08 94.06 76.01 95.14 77.91 96.26 C 79.53 97.24 81.12 98.26 82.64 99.40 L 82.62 100.18 C 81.68 99.71 80.73 99.23 79.78 98.75 C 71.78 93.70 63.34 89.27 54.54 85.76 C 55.15 82.48 49.96 82.71 50.19 79.49 C 52.48 78.07 55.08 76.66 55.97 73.91 C 57.43 70.23 60.06 67.20 63.11 64.73 Z" />
<path fill="#d71313" d=" M 68.30 63.26 C 68.57 63.22 69.12 63.14 69.39 63.09 C 72.58 64.41 75.85 65.54 78.97 67.02 C 80.90 67.90 80.43 70.46 81.13 72.13 C 80.47 72.33 79.15 72.72 78.49 72.92 C 77.20 73.20 75.89 73.43 74.59 73.66 C 73.25 75.91 71.86 78.14 70.33 80.27 C 71.32 83.44 73.60 85.92 76.40 87.61 C 74.51 89.00 73.22 90.95 72.14 93.00 C 69.35 91.44 66.31 90.23 63.83 88.17 C 62.68 86.97 63.68 85.29 63.97 83.94 C 66.22 77.26 69.69 70.53 68.30 63.26 Z" />
<path fill="#eb3333" d=" M 162.33 71.78 C 164.13 70.56 165.97 69.39 167.76 68.15 C 170.38 71.36 173.66 73.95 177.41 75.73 C 179.74 76.93 183.34 79.32 184.76 75.63 C 188.31 77.68 191.18 80.70 194.88 82.49 C 194.68 83.81 194.59 85.13 194.49 86.45 C 191.85 87.78 189.25 89.27 186.27 89.63 C 183.71 87.53 181.06 85.55 178.56 83.38 C 174.31 79.75 171.10 75.09 166.80 71.51 C 165.32 71.69 163.83 71.79 162.33 71.78 Z" />
<path fill="#d31110" d=" M 161.47 72.39 C 161.75 72.18 162.04 71.98 162.33 71.78 C 163.83 71.79 165.32 71.69 166.80 71.51 C 171.10 75.09 174.31 79.75 178.56 83.38 C 181.06 85.55 183.71 87.53 186.27 89.63 C 189.25 89.27 191.85 87.78 194.49 86.45 C 195.12 86.39 196.37 86.26 197.00 86.19 C 194.72 88.86 191.87 90.94 189.42 93.44 C 186.65 94.39 183.81 95.13 180.97 95.86 C 177.51 96.95 174.08 95.00 170.78 94.20 C 170.52 90.52 167.00 88.90 164.69 86.57 C 163.50 85.45 162.23 84.43 160.99 83.37 C 159.02 81.06 157.24 78.56 154.94 76.55 C 157.31 75.49 159.84 74.52 161.47 72.39 Z" />
<path fill="#ad3030" d=" M 78.49 72.92 C 79.15 72.72 80.47 72.33 81.13 72.13 C 82.48 73.86 84.04 75.41 85.60 76.96 C 85.65 77.75 85.75 79.34 85.80 80.14 C 84.39 79.22 83.00 78.29 81.68 77.26 C 80.56 75.86 79.55 74.37 78.49 72.92 Z" />
<path fill="#730505" d=" M 85.60 76.96 C 86.07 74.78 87.54 73.11 89.13 71.64 C 90.42 72.23 91.72 72.81 93.05 73.30 L 92.67 73.80 C 88.18 76.34 85.61 81.35 85.12 86.38 C 84.67 87.47 84.23 88.57 83.78 89.66 C 83.63 90.04 83.34 90.80 83.20 91.17 C 82.42 91.17 80.88 91.15 80.11 91.14 L 80.47 90.40 C 80.91 89.46 81.34 88.51 81.77 87.56 C 80.31 86.63 78.35 86.13 77.32 84.72 C 76.95 81.64 79.28 78.91 81.68 77.26 C 83.00 78.29 84.39 79.22 85.80 80.14 C 85.75 79.34 85.65 77.75 85.60 76.96 Z" />
<path fill="#d93838" d=" M 191.92 71.63 C 194.93 73.96 197.12 77.08 199.61 79.90 C 198.97 82.07 198.66 84.50 197.00 86.19 C 196.37 86.26 195.12 86.39 194.49 86.45 C 194.59 85.13 194.68 83.81 194.88 82.49 C 195.06 81.87 195.40 80.63 195.58 80.01 C 194.16 77.31 192.86 74.54 191.92 71.63 Z" />
<path fill="#a90b0b" d=" M 74.59 73.66 C 75.89 73.43 77.20 73.20 78.49 72.92 C 79.55 74.37 80.56 75.86 81.68 77.26 C 79.28 78.91 76.95 81.64 77.32 84.72 C 78.35 86.13 80.31 86.63 81.77 87.56 C 81.34 88.51 80.91 89.46 80.47 90.40 C 79.11 89.46 77.76 88.54 76.40 87.61 C 73.60 85.92 71.32 83.44 70.33 80.27 C 71.86 78.14 73.25 75.91 74.59 73.66 Z" />
<path fill="#a90809" d=" M 93.05 73.30 C 93.64 73.40 94.82 73.62 95.40 73.72 C 99.26 76.32 103.77 77.90 108.43 78.11 C 109.06 79.87 109.83 81.57 110.68 83.24 C 115.41 80.44 121.05 80.90 126.10 82.46 C 124.53 84.47 122.83 86.46 120.40 87.45 C 118.26 86.96 116.09 86.65 113.91 86.44 C 112.53 88.96 111.22 91.52 110.09 94.16 C 109.50 91.95 108.87 89.75 108.30 87.53 C 108.06 86.45 107.82 85.37 107.57 84.29 C 105.92 84.47 104.27 84.65 102.61 84.75 C 99.27 83.57 96.15 81.87 92.90 80.48 C 91.33 81.46 89.77 82.47 88.35 83.67 C 89.72 80.35 91.22 77.08 92.67 73.80 L 93.05 73.30 Z" />
<path fill="#eb5151" d=" M 132.59 80.93 C 142.83 81.20 152.57 77.07 161.47 72.39 C 159.84 74.52 157.31 75.49 154.94 76.55 C 152.01 77.83 149.02 78.98 146.00 80.05 C 143.00 80.90 139.92 81.44 136.84 81.85 C 135.50 81.92 134.16 81.95 132.82 81.92 C 132.09 81.82 130.64 81.61 129.91 81.51 C 129.65 81.11 129.12 80.32 128.86 79.92 C 129.16 80.01 129.78 80.18 130.08 80.26 C 130.71 80.43 131.96 80.77 132.59 80.93 Z" />
<path fill="#ce4f51" d=" M 85.12 86.38 C 85.61 81.35 88.18 76.34 92.67 73.80 C 91.22 77.08 89.72 80.35 88.35 83.67 C 87.52 85.86 87.03 88.17 86.76 90.49 L 86.62 91.97 C 86.37 92.18 85.87 92.62 85.62 92.83 C 85.45 90.68 85.27 88.53 85.12 86.38 Z" />
<path fill="#ad0606" d=" M 146.00 80.05 C 149.02 78.98 152.01 77.83 154.94 76.55 C 157.24 78.56 159.02 81.06 160.99 83.37 C 159.29 84.56 157.58 85.71 155.84 86.83 L 155.05 86.15 C 152.26 83.79 149.07 81.99 146.00 80.05 Z" />
<path fill="#8c0707" d=" M 108.43 78.11 C 115.94 78.28 123.46 78.21 130.98 78.13 C 130.75 78.66 130.31 79.73 130.08 80.26 C 129.78 80.18 129.16 80.01 128.86 79.92 C 129.12 80.32 129.65 81.11 129.91 81.51 C 128.96 81.89 128.00 82.28 127.05 82.66 C 126.81 82.61 126.34 82.51 126.10 82.46 C 121.05 80.90 115.41 80.44 110.68 83.24 C 109.83 81.57 109.06 79.87 108.43 78.11 Z" />
<path fill="#760404" d=" M 136.84 81.85 C 139.92 81.44 143.00 80.90 146.00 80.05 C 149.07 81.99 152.26 83.79 155.05 86.15 C 153.21 87.52 150.17 88.25 149.86 90.90 C 151.89 90.62 153.89 90.17 155.86 89.64 C 158.34 89.25 160.82 89.76 162.69 91.49 C 160.74 92.19 158.78 92.89 156.84 93.63 C 158.06 94.57 159.33 95.50 160.96 95.52 C 165.30 96.04 169.17 98.31 172.52 101.01 L 172.86 102.06 L 170.92 102.20 C 167.45 101.38 164.02 100.41 160.59 99.40 C 160.14 99.11 159.25 98.52 158.80 98.23 C 159.36 98.11 160.48 97.88 161.04 97.77 C 156.81 95.81 154.22 90.94 149.12 91.04 C 146.74 86.07 140.56 85.51 136.84 81.85 Z" />
<path fill="#b72929" d=" M 199.61 79.90 C 200.31 80.47 201.02 81.03 201.74 81.59 C 202.77 82.56 203.73 83.61 204.69 84.66 C 200.20 88.85 195.30 92.70 189.64 95.18 L 189.42 93.44 C 191.87 90.94 194.72 88.86 197.00 86.19 C 198.66 84.50 198.97 82.07 199.61 79.90 Z" />
<path fill="#640403" d=" M 28.23 82.92 C 31.01 81.58 34.08 80.96 37.14 81.55 C 43.08 82.26 48.92 83.72 54.54 85.76 C 63.34 89.27 71.78 93.70 79.78 98.75 C 77.88 98.56 75.95 98.50 74.10 97.97 C 64.18 95.06 54.42 91.67 44.60 88.43 C 39.17 86.53 33.47 85.39 28.23 82.92 Z" />
<path fill="#d40a0a" d=" M 88.35 83.67 C 89.77 82.47 91.33 81.46 92.90 80.48 C 96.15 81.87 99.27 83.57 102.61 84.75 C 101.39 89.12 101.26 93.69 101.26 98.20 C 96.71 95.22 92.37 91.17 86.76 90.49 C 87.03 88.17 87.52 85.86 88.35 83.67 Z" />
<path fill="#ca2323" d=" M 126.10 82.46 C 126.34 82.51 126.81 82.61 127.05 82.66 C 122.89 89.55 123.33 97.80 123.81 105.51 C 123.94 106.94 124.16 108.35 124.37 109.77 C 124.39 111.67 124.31 113.56 124.29 115.46 C 123.73 114.05 122.95 112.69 122.70 111.17 C 121.74 103.29 121.64 95.31 120.40 87.45 C 122.83 86.46 124.53 84.47 126.10 82.46 Z" />
<path fill="#660303" d=" M 127.05 82.66 C 128.00 82.28 128.96 81.89 129.91 81.51 C 130.64 81.61 132.09 81.82 132.82 81.92 C 133.30 83.29 133.79 84.66 134.29 86.03 C 132.39 86.27 130.47 86.36 128.61 86.83 C 127.57 87.72 127.68 89.19 127.53 90.42 C 127.12 95.57 127.08 101.22 123.81 105.51 C 123.33 97.80 122.89 89.55 127.05 82.66 Z" />
<path fill="#4e0101" d=" M 132.82 81.92 C 134.16 81.95 135.50 81.92 136.84 81.85 C 140.56 85.51 146.74 86.07 149.12 91.04 C 154.22 90.94 156.81 95.81 161.04 97.77 C 160.48 97.88 159.36 98.11 158.80 98.23 C 150.16 95.14 142.28 90.45 134.29 86.03 C 133.79 84.66 133.30 83.29 132.82 81.92 Z" />
<path fill="#800504" d=" M 25.79 89.91 C 25.21 87.23 25.61 84.31 28.23 82.92 C 33.47 85.39 39.17 86.53 44.60 88.43 C 54.42 91.67 64.18 95.06 74.10 97.97 C 75.95 98.50 77.88 98.56 79.78 98.75 C 80.73 99.23 81.68 99.71 82.62 100.18 L 82.64 99.40 C 82.81 96.65 82.93 93.91 83.20 91.17 C 83.34 90.80 83.63 90.04 83.78 89.66 C 83.49 94.65 83.85 99.68 85.14 104.51 L 85.15 104.79 C 87.20 104.31 89.40 103.35 91.41 104.53 C 95.45 106.42 99.58 108.24 103.26 110.80 C 106.83 113.89 109.33 118.13 113.50 120.56 C 114.82 120.29 116.13 119.96 117.46 119.73 C 120.10 121.74 123.27 122.78 126.61 122.60 C 126.10 118.28 125.22 114.03 124.37 109.77 C 124.16 108.35 123.94 106.94 123.81 105.51 C 127.08 101.22 127.12 95.57 127.53 90.42 C 127.68 89.19 127.57 87.72 128.61 86.83 C 130.47 86.36 132.39 86.27 134.29 86.03 C 142.28 90.45 150.16 95.14 158.80 98.23 C 159.25 98.52 160.14 99.11 160.59 99.40 C 156.61 100.21 152.78 98.91 149.21 97.25 C 143.86 93.24 137.33 89.69 130.43 90.43 C 129.01 94.99 134.26 96.53 136.52 99.43 C 136.98 101.00 136.01 102.29 135.03 103.38 C 133.29 103.03 131.56 102.67 129.82 102.31 C 128.95 103.41 127.59 104.36 127.48 105.89 C 126.75 112.19 130.45 118.16 129.40 124.45 C 129.08 125.29 128.77 126.13 128.48 126.97 C 128.18 126.59 127.58 125.83 127.28 125.46 C 121.90 122.28 114.54 123.77 109.63 119.43 C 106.25 116.13 103.20 112.19 98.59 110.54 C 93.64 108.74 88.66 106.13 83.24 106.58 C 81.93 106.60 80.62 106.70 79.30 106.69 C 69.64 104.74 60.59 100.62 51.14 97.93 C 42.57 95.64 34.30 92.40 25.79 89.91 Z" />
<path fill="#dc2324" d=" M 102.61 84.75 C 104.27 84.65 105.92 84.47 107.57 84.29 C 107.82 85.37 108.06 86.45 108.30 87.53 C 107.43 95.68 109.26 103.82 110.17 111.89 C 109.95 112.61 109.51 114.06 109.29 114.78 C 105.65 109.83 101.92 104.49 101.26 98.20 C 101.26 93.69 101.39 89.12 102.61 84.75 Z" />
<path fill="#b51e1e" d=" M 160.99 83.37 C 162.23 84.43 163.50 85.45 164.69 86.57 C 162.50 87.33 160.30 88.09 158.12 88.87 C 157.36 88.18 156.60 87.51 155.84 86.83 C 157.58 85.71 159.29 84.56 160.99 83.37 Z" />
<path fill="#bc1a1c" d=" M 83.78 89.66 C 84.23 88.57 84.67 87.47 85.12 86.38 C 85.27 88.53 85.45 90.68 85.62 92.83 C 85.87 92.62 86.37 92.18 86.62 91.97 C 86.83 96.20 86.86 100.55 85.14 104.51 C 83.85 99.68 83.49 94.65 83.78 89.66 Z" />
<path fill="#dd0d0e" d=" M 110.09 94.16 C 111.22 91.52 112.53 88.96 113.91 86.44 C 116.09 86.65 118.26 86.96 120.40 87.45 C 121.64 95.31 121.74 103.29 122.70 111.17 C 122.95 112.69 123.73 114.05 124.29 115.46 C 124.61 117.63 124.27 121.81 121.06 120.31 C 118.78 118.13 116.95 115.53 114.80 113.22 C 114.34 115.03 113.84 116.83 113.30 118.62 C 111.89 117.42 110.48 116.20 109.29 114.78 C 109.51 114.06 109.95 112.61 110.17 111.89 C 109.26 103.82 107.43 95.68 108.30 87.53 C 108.87 89.75 109.50 91.95 110.09 94.16 Z" />
<path fill="#8b2222" d=" M 149.86 90.90 C 150.17 88.25 153.21 87.52 155.05 86.15 L 155.84 86.83 C 156.60 87.51 157.36 88.18 158.12 88.87 C 157.56 89.06 156.43 89.45 155.86 89.64 C 153.89 90.17 151.89 90.62 149.86 90.90 Z" />
<path fill="#9d0808" d=" M 158.12 88.87 C 160.30 88.09 162.50 87.33 164.69 86.57 C 167.00 88.90 170.52 90.52 170.78 94.20 C 174.08 95.00 177.51 96.95 180.97 95.86 C 183.81 95.13 186.65 94.39 189.42 93.44 L 189.64 95.18 C 184.48 98.00 178.82 99.66 173.31 101.62 L 172.52 101.01 C 169.17 98.31 165.30 96.04 160.96 95.52 C 162.23 94.91 164.63 95.21 164.80 93.38 C 164.13 92.71 163.43 92.08 162.69 91.49 C 160.82 89.76 158.34 89.25 155.86 89.64 C 156.43 89.45 157.56 89.06 158.12 88.87 Z" />
<path fill="#960808" d=" M 72.14 93.00 C 73.22 90.95 74.51 89.00 76.40 87.61 C 77.76 88.54 79.11 89.46 80.47 90.40 L 80.11 91.14 C 79.26 92.80 78.56 94.52 77.91 96.26 C 76.01 95.14 74.08 94.06 72.14 93.00 Z" />
<path fill="#920605" d=" M 25.79 89.91 C 34.30 92.40 42.57 95.64 51.14 97.93 C 60.59 100.62 69.64 104.74 79.30 106.69 L 79.75 107.48 C 71.33 109.11 62.80 113.18 54.10 110.87 C 49.21 110.57 44.58 108.79 40.14 106.85 C 36.94 105.42 33.39 103.72 31.30 100.83 C 29.45 97.19 26.50 94.06 25.79 89.91 Z" />
<path fill="#ad0303" d=" M 86.76 90.49 C 92.37 91.17 96.71 95.22 101.26 98.20 C 101.92 104.49 105.65 109.83 109.29 114.78 C 110.48 116.20 111.89 117.42 113.30 118.62 C 113.84 116.83 114.34 115.03 114.80 113.22 C 116.95 115.53 118.78 118.13 121.06 120.31 C 124.27 121.81 124.61 117.63 124.29 115.46 C 124.31 113.56 124.39 111.67 124.37 109.77 C 125.22 114.03 126.10 118.28 126.61 122.60 C 123.27 122.78 120.10 121.74 117.46 119.73 C 116.13 119.96 114.82 120.29 113.50 120.56 C 109.33 118.13 106.83 113.89 103.26 110.80 C 99.58 108.24 95.45 106.42 91.41 104.53 C 89.40 103.35 87.20 104.31 85.15 104.79 L 85.14 104.51 C 86.86 100.55 86.83 96.20 86.62 91.97 L 86.76 90.49 Z" />
<path fill="#b80606" d=" M 130.43 90.43 C 137.33 89.69 143.86 93.24 149.21 97.25 C 148.41 97.25 146.82 97.23 146.02 97.23 C 141.44 95.17 136.98 92.57 131.89 92.03 C 132.41 93.12 132.75 94.41 133.84 95.10 C 138.24 98.28 143.12 100.69 147.67 103.63 C 142.73 108.20 135.57 108.51 129.39 110.26 C 129.41 115.96 133.69 120.65 133.38 126.33 C 132.05 125.70 130.73 125.08 129.40 124.45 C 130.45 118.16 126.75 112.19 127.48 105.89 C 127.59 104.36 128.95 103.41 129.82 102.31 C 131.56 102.67 133.29 103.03 135.03 103.38 C 136.01 102.29 136.98 101.00 136.52 99.43 C 134.26 96.53 129.01 94.99 130.43 90.43 Z" />
<path fill="#6a0404" d=" M 77.91 96.26 C 78.56 94.52 79.26 92.80 80.11 91.14 C 80.88 91.15 82.42 91.17 83.20 91.17 C 82.93 93.91 82.81 96.65 82.64 99.40 C 81.12 98.26 79.53 97.24 77.91 96.26 Z" />
<path fill="#f15354" d=" M 103.30 99.98 C 103.24 96.99 102.72 93.19 105.26 91.01 C 107.08 96.50 107.54 102.24 107.59 107.99 C 105.70 105.63 103.29 103.22 103.30 99.98 Z" />
<path fill="#c82626" d=" M 131.89 92.03 C 136.98 92.57 141.44 95.17 146.02 97.23 C 147.40 98.16 148.73 99.17 150.06 100.17 C 149.41 101.42 148.66 102.62 147.67 103.63 C 143.12 100.69 138.24 98.28 133.84 95.10 C 132.75 94.41 132.41 93.12 131.89 92.03 Z" />
<path fill="#902424" d=" M 156.84 93.63 C 158.78 92.89 160.74 92.19 162.69 91.49 C 163.43 92.08 164.13 92.71 164.80 93.38 C 164.63 95.21 162.23 94.91 160.96 95.52 C 159.33 95.50 158.06 94.57 156.84 93.63 Z" />
<path fill="#d30708" d=" M 146.02 97.23 C 146.82 97.23 148.41 97.25 149.21 97.25 C 152.78 98.91 156.61 100.21 160.59 99.40 C 164.02 100.41 167.45 101.38 170.92 102.20 L 171.92 103.22 C 171.25 104.04 170.66 104.92 170.10 105.81 C 166.37 105.64 162.57 106.40 158.92 105.35 C 158.51 106.29 158.11 107.24 157.70 108.19 C 154.97 108.29 152.21 108.56 149.68 109.69 C 146.94 111.02 143.86 110.45 140.96 110.96 C 138.76 112.67 137.12 115.32 136.68 118.09 C 137.10 121.48 138.03 124.87 137.23 128.30 C 135.96 127.61 134.68 126.96 133.38 126.33 C 133.69 120.65 129.41 115.96 129.39 110.26 C 135.57 108.51 142.73 108.20 147.67 103.63 C 148.66 102.62 149.41 101.42 150.06 100.17 C 148.73 99.17 147.40 98.16 146.02 97.23 Z" />
<path fill="#e31818" d=" M 171.92 103.22 C 173.47 103.25 175.04 104.81 176.54 105.48 C 170.52 110.82 169.33 119.39 169.28 127.00 C 169.27 133.42 170.25 139.78 170.86 146.16 C 171.22 150.17 173.32 153.71 174.34 157.54 C 174.07 157.94 173.54 158.75 173.27 159.15 C 172.55 158.48 171.09 157.13 170.37 156.46 C 169.29 155.43 168.22 154.38 167.22 153.29 C 166.47 152.39 165.73 151.49 165.00 150.58 C 164.17 149.54 163.38 148.47 162.55 147.43 C 163.63 147.79 164.72 148.12 165.82 148.47 C 164.39 141.62 164.82 134.61 164.48 127.68 C 164.64 120.12 166.27 112.39 170.10 105.81 C 170.66 104.92 171.25 104.04 171.92 103.22 Z" />
<path fill="#e30909" d=" M 158.92 105.35 C 162.57 106.40 166.37 105.64 170.10 105.81 C 166.27 112.39 164.64 120.12 164.48 127.68 C 164.82 134.61 164.39 141.62 165.82 148.47 C 164.72 148.12 163.63 147.79 162.55 147.43 L 162.54 147.43 C 161.66 146.42 160.80 145.40 159.86 144.45 C 153.27 137.84 145.28 132.92 137.23 128.30 C 138.03 124.87 137.10 121.48 136.68 118.09 C 137.12 115.32 138.76 112.67 140.96 110.96 C 143.86 110.45 146.94 111.02 149.68 109.69 C 152.21 108.56 154.97 108.29 157.70 108.19 C 158.11 107.24 158.51 106.29 158.92 105.35 Z" />
<path fill="#5b0202" d=" M 83.24 106.58 C 88.66 106.13 93.64 108.74 98.59 110.54 C 103.20 112.19 106.25 116.13 109.63 119.43 C 114.54 123.77 121.90 122.28 127.28 125.46 C 127.10 128.66 126.56 131.84 125.12 134.74 C 117.57 135.44 111.68 130.08 106.41 125.50 C 104.71 123.23 103.16 120.82 100.98 118.97 C 98.04 116.40 96.10 112.74 92.61 110.81 C 89.52 109.31 86.08 108.59 83.24 106.58 Z" />
<path fill="#e33434" d=" M 176.54 105.48 C 180.86 107.87 184.99 110.63 188.71 113.88 C 187.78 114.86 187.12 116.04 187.38 117.43 C 188.09 127.75 187.18 138.06 186.19 148.32 C 185.71 151.33 184.70 154.23 183.89 157.16 C 181.76 159.29 178.90 159.81 176.01 159.34 C 177.74 161.35 179.34 163.47 180.71 165.74 C 178.09 163.71 175.64 161.47 173.27 159.15 C 173.54 158.75 174.07 157.94 174.34 157.54 C 173.32 153.71 171.22 150.17 170.86 146.16 C 170.25 139.78 169.27 133.42 169.28 127.00 C 169.33 119.39 170.52 110.82 176.54 105.48 Z" />
<path fill="#b80506" d=" M 92.61 110.81 C 96.10 112.74 98.04 116.40 100.98 118.97 C 103.16 120.82 104.71 123.23 106.41 125.50 C 111.68 130.08 117.57 135.44 125.12 134.74 C 126.56 131.84 127.10 128.66 127.28 125.46 C 127.58 125.83 128.18 126.59 128.48 126.97 C 127.72 132.14 126.18 137.22 123.63 141.79 C 121.05 141.68 118.18 141.75 116.43 139.50 C 110.13 134.87 104.77 129.21 99.09 123.89 C 95.89 120.25 89.74 122.54 87.16 118.04 C 88.99 115.64 90.62 113.09 92.61 110.81 Z" />
<path fill="#eb5151" d=" M 176.28 118.58 C 176.48 116.28 178.26 114.84 180.52 115.32 C 181.40 117.78 182.85 120.30 182.33 123.01 C 180.65 130.58 182.01 138.37 181.28 146.03 C 181.07 148.15 180.15 150.09 179.02 151.87 C 177.88 150.62 176.54 149.43 176.13 147.72 C 173.65 138.20 174.23 128.12 176.28 118.58 Z" />
<path fill="#dd1c1d" d=" M 187.38 117.43 C 187.12 116.04 187.78 114.86 188.71 113.88 C 190.41 115.24 192.07 116.64 193.76 118.02 C 191.20 122.00 193.01 126.70 193.29 131.01 C 193.89 136.48 192.36 141.88 192.51 147.35 C 189.47 150.48 187.49 154.58 183.89 157.16 C 184.70 154.23 185.71 151.33 186.19 148.32 C 187.18 138.06 188.09 127.75 187.38 117.43 Z" />
<path fill="#e60b0b" d=" M 82.24 124.80 C 83.90 122.56 85.51 120.29 87.16 118.04 C 89.74 122.54 95.89 120.25 99.09 123.89 C 104.77 129.21 110.13 134.87 116.43 139.50 C 118.18 141.75 121.05 141.68 123.63 141.79 C 121.04 146.61 117.31 150.61 113.86 154.79 C 106.85 163.69 101.18 173.55 94.36 182.57 C 92.74 181.73 90.96 181.89 89.25 182.29 C 89.65 181.28 90.03 180.26 90.41 179.24 C 93.27 177.91 95.26 175.38 96.82 172.72 C 98.82 169.29 101.79 166.37 102.87 162.46 C 105.06 156.16 104.68 149.38 104.19 142.84 C 103.16 135.87 101.92 127.66 95.56 123.45 C 91.24 122.09 89.45 127.22 87.02 129.68 C 85.43 129.36 83.94 128.73 82.47 128.06 C 82.40 126.97 82.33 125.89 82.24 124.80 Z" />
<path fill="#db0708" d=" M 193.76 118.02 C 207.87 129.60 221.80 141.39 235.81 153.09 C 237.13 168.46 235.77 184.42 229.77 198.74 C 230.36 193.37 232.47 188.36 233.49 183.08 C 234.60 178.00 235.09 172.77 234.50 167.58 C 228.53 162.98 220.39 164.01 214.09 160.16 C 207.72 156.97 200.48 154.18 193.28 156.01 C 193.77 153.09 194.23 149.97 192.51 147.35 C 192.36 141.88 193.89 136.48 193.29 131.01 C 193.01 126.70 191.20 122.00 193.76 118.02 Z" />
<path fill="#ea2323" d=" M 87.02 129.68 C 89.45 127.22 91.24 122.09 95.56 123.45 C 101.92 127.66 103.16 135.87 104.19 142.84 C 104.68 149.38 105.06 156.16 102.87 162.46 C 101.79 166.37 98.82 169.29 96.82 172.72 C 95.26 175.38 93.27 177.91 90.41 179.24 L 88.99 179.45 C 92.11 175.73 95.87 172.33 97.41 167.57 C 99.16 161.89 101.35 155.97 100.35 149.94 C 98.95 142.96 98.28 135.26 93.17 129.78 C 91.90 131.63 90.77 133.60 89.26 135.27 C 86.94 136.22 84.20 134.90 81.86 135.78 C 79.75 139.48 79.08 143.77 78.03 147.85 C 76.03 155.63 80.06 163.12 80.66 170.81 C 80.13 172.64 79.49 174.44 78.96 176.27 C 78.24 167.58 74.03 159.55 73.68 150.81 C 74.48 144.95 77.14 139.55 78.62 133.87 C 78.47 133.13 78.17 131.66 78.01 130.92 L 77.96 130.70 C 79.33 128.69 80.77 126.73 82.24 124.80 C 82.33 125.89 82.40 126.97 82.47 128.06 C 83.94 128.73 85.43 129.36 87.02 129.68 Z" />
<path fill="#2d0e06" d=" M 128.48 126.97 C 128.77 126.13 129.08 125.29 129.40 124.45 C 130.73 125.08 132.05 125.70 133.38 126.33 C 134.68 126.96 135.96 127.61 137.23 128.30 C 145.28 132.92 153.27 137.84 159.86 144.45 C 156.73 144.76 153.81 143.52 150.98 142.37 C 146.54 140.55 142.92 137.36 138.90 134.85 C 135.77 133.28 132.82 135.59 131.49 138.34 C 127.95 142.81 125.01 147.67 122.61 152.85 C 119.16 155.93 118.70 160.74 116.69 164.68 C 113.75 170.54 111.28 176.76 106.96 181.79 C 106.24 181.11 105.53 180.43 104.83 179.76 C 105.99 174.86 107.00 169.85 109.39 165.36 C 111.19 161.98 112.80 158.49 113.86 154.79 C 117.31 150.61 121.04 146.61 123.63 141.79 C 126.18 137.22 127.72 132.14 128.48 126.97 Z" />
<path fill="#f44243" d=" M 89.26 135.27 C 90.77 133.60 91.90 131.63 93.17 129.78 C 98.28 135.26 98.95 142.96 100.35 149.94 C 101.35 155.97 99.16 161.89 97.41 167.57 C 95.87 172.33 92.11 175.73 88.99 179.45 C 87.64 180.95 86.28 182.60 84.18 182.99 C 81.78 179.38 81.40 174.96 80.66 170.81 C 80.06 163.12 76.03 155.63 78.03 147.85 C 79.08 143.77 79.75 139.48 81.86 135.78 C 84.20 134.90 86.94 136.22 89.26 135.27 Z" />
<path fill="#dd0808" d=" M 51.00 168.22 C 59.76 155.63 68.82 143.20 78.01 130.92 C 78.17 131.66 78.47 133.13 78.62 133.87 C 77.14 139.55 74.48 144.95 73.68 150.81 C 74.03 159.55 78.24 167.58 78.96 176.27 C 78.87 177.02 78.69 178.51 78.60 179.25 C 76.27 176.06 73.84 172.48 70.31 170.57 C 63.85 169.88 57.56 166.03 51.00 168.22 Z" />
<path fill="#432114" d=" M 131.49 138.34 C 132.82 135.59 135.77 133.28 138.90 134.85 C 142.92 137.36 146.54 140.55 150.98 142.37 C 150.56 142.61 149.72 143.09 149.30 143.33 C 150.10 145.33 151.08 147.25 152.07 149.17 C 152.83 151.54 153.50 153.95 154.53 156.23 C 152.94 156.25 151.35 156.27 149.76 156.29 C 148.08 151.41 145.10 147.20 142.62 142.74 C 141.92 139.42 139.25 136.87 135.72 137.08 C 134.83 138.02 133.93 138.94 133.07 139.91 C 132.68 139.52 131.89 138.73 131.49 138.34 Z" />
<path fill="#945942" d=" M 133.07 139.91 C 133.93 138.94 134.83 138.02 135.72 137.08 C 139.25 136.87 141.92 139.42 142.62 142.74 L 141.34 144.41 C 140.31 142.00 138.45 139.25 135.42 140.50 C 131.79 142.95 130.27 147.43 128.30 151.17 L 126.56 151.02 C 128.26 147.07 130.21 143.18 133.07 139.91 Z" />
<path fill="#5a361e" d=" M 122.61 152.85 C 125.01 147.67 127.95 142.81 131.49 138.34 C 131.89 138.73 132.68 139.52 133.07 139.91 C 130.21 143.18 128.26 147.07 126.56 151.02 C 122.70 158.96 119.25 167.10 114.53 174.60 C 115.64 166.80 121.72 160.74 122.61 152.85 Z" />
<path fill="#cfb48b" d=" M 135.42 140.50 C 138.45 139.25 140.31 142.00 141.34 144.41 C 143.93 150.20 146.90 155.82 149.40 161.66 C 149.24 162.30 148.92 163.60 148.76 164.25 C 147.71 162.52 146.40 160.98 145.09 159.46 C 143.89 156.84 142.67 154.22 141.58 151.55 C 140.56 148.73 139.88 145.50 137.46 143.50 C 136.33 143.12 134.95 143.12 134.43 144.42 C 132.21 147.82 130.63 151.61 129.40 155.47 C 128.61 157.72 127.59 159.88 126.73 162.10 C 126.67 159.95 126.54 157.80 126.54 155.65 C 127.08 154.14 127.66 152.65 128.30 151.17 C 130.27 147.43 131.79 142.95 135.42 140.50 Z" />
<path fill="#fdf9d1" d=" M 134.43 144.42 C 134.95 143.12 136.33 143.12 137.46 143.50 C 139.88 145.50 140.56 148.73 141.58 151.55 C 141.10 158.95 140.86 166.48 142.33 173.79 C 142.62 177.42 142.37 181.11 143.35 184.67 C 144.46 188.56 142.16 192.18 141.22 195.83 C 138.32 195.87 135.52 194.41 134.38 191.66 C 131.21 184.49 131.91 176.43 130.14 168.92 C 130.43 164.42 130.03 159.93 129.40 155.47 C 130.63 151.61 132.21 147.82 134.43 144.42 Z" />
<path fill="#85753b" d=" M 142.62 142.74 C 145.10 147.20 148.08 151.41 149.76 156.29 C 152.71 162.13 155.36 168.35 159.87 173.20 C 159.19 167.27 157.06 161.60 154.53 156.23 C 153.50 153.95 152.83 151.54 152.07 149.17 C 152.50 149.59 153.36 150.45 153.80 150.88 C 153.93 151.01 154.21 151.27 154.34 151.40 C 156.88 154.50 160.07 157.09 162.03 160.63 C 161.50 160.55 160.44 160.40 159.91 160.32 C 161.32 165.44 162.73 170.55 163.72 175.77 C 165.81 182.71 169.47 189.10 173.75 194.92 C 173.81 195.50 173.92 196.65 173.97 197.22 C 171.75 194.94 169.34 192.85 166.74 191.01 C 166.40 192.52 166.07 194.04 165.74 195.56 C 165.33 195.49 164.52 195.37 164.11 195.31 C 163.78 192.41 163.23 189.49 161.81 186.91 C 161.10 185.44 160.24 184.04 159.49 182.59 C 156.49 175.45 153.10 168.47 149.40 161.66 C 146.90 155.82 143.93 150.20 141.34 144.41 L 142.62 142.74 Z" />
<path fill="#71140a" d=" M 149.30 143.33 C 149.72 143.09 150.56 142.61 150.98 142.37 C 153.81 143.52 156.73 144.76 159.86 144.45 C 160.80 145.40 161.66 146.42 162.54 147.43 C 159.83 148.01 157.28 146.55 154.68 146.02 C 154.38 147.64 154.09 149.26 153.80 150.88 C 153.36 150.45 152.50 149.59 152.07 149.17 C 151.08 147.25 150.10 145.33 149.30 143.33 Z" />
<path fill="#93160a" d=" M 154.68 146.02 C 157.28 146.55 159.83 148.01 162.54 147.43 L 162.55 147.43 C 163.38 148.47 164.17 149.54 165.00 150.58 C 164.42 151.41 163.83 152.23 163.25 153.06 C 163.42 155.04 163.58 157.02 163.74 159.00 C 160.73 156.32 158.33 152.72 154.34 151.40 C 154.21 151.27 153.93 151.01 153.80 150.88 C 154.09 149.26 154.38 147.64 154.68 146.02 Z" />
<path fill="#cd1717" d=" M 192.51 147.35 C 194.23 149.97 193.77 153.09 193.28 156.01 C 190.01 159.98 186.10 163.35 181.90 166.30 L 181.33 166.72 L 180.71 165.74 C 179.34 163.47 177.74 161.35 176.01 159.34 C 178.90 159.81 181.76 159.29 183.89 157.16 C 187.49 154.58 189.47 150.48 192.51 147.35 Z" />
<path fill="#8c7334" d=" M 126.56 151.02 L 128.30 151.17 C 127.66 152.65 127.08 154.14 126.54 155.65 C 125.38 158.69 124.08 161.67 122.70 164.62 C 118.74 170.16 117.40 176.95 115.20 183.28 C 115.00 182.69 114.61 181.51 114.41 180.93 C 113.52 183.41 112.73 185.94 111.87 188.44 C 111.50 188.72 110.76 189.28 110.39 189.57 C 111.37 185.28 112.32 180.99 113.55 176.78 C 113.88 176.05 114.21 175.32 114.53 174.60 C 119.25 167.10 122.70 158.96 126.56 151.02 Z" />
<path fill="#9a431b" d=" M 154.34 151.40 C 158.33 152.72 160.73 156.32 163.74 159.00 C 163.58 157.02 163.42 155.04 163.25 153.06 C 163.83 152.23 164.42 151.41 165.00 150.58 C 165.73 151.49 166.47 152.39 167.22 153.29 C 167.94 157.55 168.60 161.83 169.52 166.06 C 168.72 167.94 167.99 169.85 167.32 171.78 C 166.18 168.67 164.63 165.75 163.03 162.85 C 162.78 162.30 162.28 161.19 162.03 160.63 C 160.07 157.09 156.88 154.50 154.34 151.40 Z" />
<path fill="#faf4af" d=" M 141.58 151.55 C 142.67 154.22 143.89 156.84 145.09 159.46 C 145.93 168.81 151.13 177.78 149.25 187.33 C 147.89 192.38 147.00 198.06 142.75 201.61 C 142.81 199.56 142.52 197.49 141.22 195.83 C 142.16 192.18 144.46 188.56 143.35 184.67 C 142.37 181.11 142.62 177.42 142.33 173.79 C 140.86 166.48 141.10 158.95 141.58 151.55 Z" />
<path fill="#422e0d" d=" M 116.69 164.68 C 118.70 160.74 119.16 155.93 122.61 152.85 C 121.72 160.74 115.64 166.80 114.53 174.60 C 114.21 175.32 113.88 176.05 113.55 176.78 C 111.97 178.76 110.45 180.83 109.52 183.22 C 107.54 188.04 104.87 192.53 102.17 196.97 C 101.26 193.87 101.26 190.62 101.15 187.42 C 101.74 185.33 102.31 183.24 102.73 181.11 C 103.25 180.77 104.30 180.10 104.83 179.76 C 105.53 180.43 106.24 181.11 106.96 181.79 C 111.28 176.76 113.75 170.54 116.69 164.68 Z" />
<path fill="#f1ede2" d=" M 167.22 153.29 C 168.22 154.38 169.29 155.43 170.37 156.46 C 169.80 157.30 169.14 158.20 169.56 159.27 C 171.34 169.97 177.02 179.36 182.50 188.52 C 185.15 192.48 187.47 196.73 190.82 200.17 C 191.69 201.30 193.17 202.35 192.70 204.01 C 180.52 194.82 172.61 180.87 169.52 166.06 C 168.60 161.83 167.94 157.55 167.22 153.29 Z" />
<path fill="#5b0803" d=" M 94.36 182.57 C 101.18 173.55 106.85 163.69 113.86 154.79 C 112.80 158.49 111.19 161.98 109.39 165.36 C 107.00 169.85 105.99 174.86 104.83 179.76 C 104.30 180.10 103.25 180.77 102.73 181.11 C 102.62 180.63 102.39 179.69 102.27 179.22 C 98.22 179.98 96.66 184.39 94.59 187.45 C 94.36 186.48 93.88 184.53 93.65 183.56 L 94.36 182.57 Z" />
<path fill="#b20506" d=" M 193.28 156.01 C 200.48 154.18 207.72 156.97 214.09 160.16 C 220.39 164.01 228.53 162.98 234.50 167.58 C 235.09 172.77 234.60 178.00 233.49 183.08 C 228.85 181.06 224.28 178.69 219.25 177.85 C 216.70 176.76 214.12 175.68 211.31 175.54 C 208.96 178.84 205.69 182.15 206.50 186.59 C 199.70 181.43 193.11 176.01 186.50 170.61 C 184.95 169.20 183.07 168.08 181.90 166.30 C 186.10 163.35 190.01 159.98 193.28 156.01 Z" />
<path fill="#d3bd7f" d=" M 122.70 164.62 C 124.08 161.67 125.38 158.69 126.54 155.65 C 126.54 157.80 126.67 159.95 126.73 162.10 C 125.88 168.76 124.97 175.47 125.68 182.20 C 128.00 190.12 131.53 197.70 136.84 204.08 C 138.16 205.21 140.01 205.13 141.62 205.54 C 142.50 205.93 143.38 206.34 144.24 206.78 C 143.83 207.17 143.00 207.95 142.59 208.34 C 142.95 209.00 143.32 209.66 143.70 210.32 C 141.74 210.68 139.78 211.07 137.83 211.52 C 132.50 209.12 131.79 202.78 128.27 198.71 C 124.98 194.93 123.69 189.98 121.17 185.73 C 118.68 178.73 122.48 171.66 122.70 164.62 Z" />
<path fill="#eaddab" d=" M 126.73 162.10 C 127.59 159.88 128.61 157.72 129.40 155.47 C 130.03 159.93 130.43 164.42 130.14 168.92 C 131.91 176.43 131.21 184.49 134.38 191.66 C 135.52 194.41 138.32 195.87 141.22 195.83 C 142.52 197.49 142.81 199.56 142.75 201.61 C 142.36 202.92 141.98 204.23 141.62 205.54 C 140.01 205.13 138.16 205.21 136.84 204.08 C 131.53 197.70 128.00 190.12 125.68 182.20 C 124.97 175.47 125.88 168.76 126.73 162.10 Z" />
<path fill="#4f4826" d=" M 149.76 156.29 C 151.35 156.27 152.94 156.25 154.53 156.23 C 157.06 161.60 159.19 167.27 159.87 173.20 C 155.36 168.35 152.71 162.13 149.76 156.29 Z" />
<path fill="#e8db87" d=" M 145.09 159.46 C 146.40 160.98 147.71 162.52 148.76 164.25 C 150.95 169.96 153.28 175.69 154.48 181.72 C 154.82 186.36 153.29 190.91 152.22 195.38 C 151.08 200.05 147.74 203.68 144.24 206.78 C 143.38 206.34 142.50 205.93 141.62 205.54 C 141.98 204.23 142.36 202.92 142.75 201.61 C 147.00 198.06 147.89 192.38 149.25 187.33 C 151.13 177.78 145.93 168.81 145.09 159.46 Z" />
<path fill="#a79145" d=" M 159.91 160.32 C 160.44 160.40 161.50 160.55 162.03 160.63 C 162.28 161.19 162.78 162.30 163.03 162.85 C 163.29 166.14 163.97 169.42 165.58 172.33 C 168.82 178.43 170.91 185.09 174.57 190.98 C 175.36 192.87 176.08 194.80 176.80 196.73 C 175.78 196.14 174.75 195.54 173.75 194.92 C 169.47 189.10 165.81 182.71 163.72 175.77 C 162.73 170.55 161.32 165.44 159.91 160.32 Z" />
<path fill="#d5bf5e" d=" M 149.40 161.66 C 153.10 168.47 156.49 175.45 159.49 182.59 C 159.09 183.91 158.73 185.23 158.39 186.57 C 156.76 192.82 155.75 199.21 154.16 205.48 C 153.29 209.61 148.05 209.41 144.90 210.90 C 144.60 210.75 144.00 210.47 143.70 210.32 C 143.32 209.66 142.95 209.00 142.59 208.34 C 143.00 207.95 143.83 207.17 144.24 206.78 C 147.74 203.68 151.08 200.05 152.22 195.38 C 153.29 190.91 154.82 186.36 154.48 181.72 C 153.28 175.69 150.95 169.96 148.76 164.25 C 148.92 163.60 149.24 162.30 149.40 161.66 Z" />
<path fill="#a16631" d=" M 163.03 162.85 C 164.63 165.75 166.18 168.67 167.32 171.78 C 167.99 169.85 168.72 167.94 169.52 166.06 C 172.61 180.87 180.52 194.82 192.70 204.01 C 195.63 206.69 199.06 208.76 201.93 211.52 L 201.31 212.54 C 200.95 212.65 200.22 212.85 199.85 212.96 C 198.03 211.89 196.39 210.55 194.92 209.04 C 191.68 205.20 186.62 203.70 183.15 200.13 C 180.50 196.89 178.23 193.21 174.57 190.98 C 170.91 185.09 168.82 178.43 165.58 172.33 C 163.97 169.42 163.29 166.14 163.03 162.85 Z" />
<path fill="#b79949" d=" M 115.20 183.28 C 117.40 176.95 118.74 170.16 122.70 164.62 C 122.48 171.66 118.68 178.73 121.17 185.73 C 123.69 189.98 124.98 194.93 128.27 198.71 C 131.79 202.78 132.50 209.12 137.83 211.52 C 139.78 211.07 141.74 210.68 143.70 210.32 C 144.00 210.47 144.60 210.75 144.90 210.90 C 148.74 212.86 153.84 212.99 157.39 210.36 C 159.13 207.04 158.04 203.02 158.67 199.42 C 159.36 195.14 159.51 190.79 158.39 186.57 C 158.73 185.23 159.09 183.91 159.49 182.59 C 160.24 184.04 161.10 185.44 161.81 186.91 C 161.22 193.18 162.34 199.38 163.33 205.54 C 164.26 209.22 161.51 212.56 158.52 214.29 C 151.96 215.19 145.26 213.87 138.74 215.38 C 136.21 214.72 133.74 213.82 131.19 213.25 C 128.47 210.48 125.87 207.56 124.10 204.08 C 122.57 201.06 119.68 199.06 117.99 196.16 C 116.37 192.06 115.77 187.63 115.20 183.28 Z" />
<path fill="#b70506" d=" M 51.00 168.22 C 57.56 166.03 63.85 169.88 70.31 170.57 C 73.84 172.48 76.27 176.06 78.60 179.25 C 79.88 184.12 80.80 189.70 85.04 192.97 C 84.06 194.83 83.04 196.66 81.95 198.45 C 79.86 196.43 77.51 194.48 76.45 191.68 C 75.46 189.16 73.54 187.19 71.74 185.24 C 69.99 184.43 68.06 184.14 66.20 183.70 C 66.88 183.41 68.24 182.84 68.92 182.55 C 65.85 181.97 62.79 180.45 59.62 180.83 C 56.48 182.24 52.63 185.35 53.77 189.23 C 54.10 190.79 54.55 192.33 55.02 193.86 L 54.01 193.30 C 50.87 187.69 47.84 181.93 45.00 176.13 C 46.96 173.59 48.89 171.02 50.60 168.30 L 51.00 168.22 Z" />
<path fill="#ce1919" d=" M 78.96 176.27 C 79.49 174.44 80.13 172.64 80.66 170.81 C 81.40 174.96 81.78 179.38 84.18 182.99 C 86.28 182.60 87.64 180.95 88.99 179.45 L 90.41 179.24 C 90.03 180.26 89.65 181.28 89.25 182.29 C 90.96 181.89 92.74 181.73 94.36 182.57 L 93.65 183.56 C 85.49 194.44 78.03 205.99 73.28 218.80 C 73.31 213.14 76.98 208.26 79.16 203.21 C 80.04 201.59 80.99 200.02 81.95 198.45 C 83.04 196.66 84.06 194.83 85.04 192.97 C 80.80 189.70 79.88 184.12 78.60 179.25 C 78.69 178.51 78.87 177.02 78.96 176.27 Z" />
<path fill="#9a0404" d=" M 211.31 175.54 C 214.12 175.68 216.70 176.76 219.25 177.85 C 224.28 178.69 228.85 181.06 233.49 183.08 C 232.47 188.36 230.36 193.37 229.77 198.74 C 229.47 200.31 228.85 201.78 228.28 203.27 C 221.00 197.73 213.65 192.28 206.50 186.59 C 205.69 182.15 208.96 178.84 211.31 175.54 Z" />
<path fill="#694b10" d=" M 109.52 183.22 C 110.45 180.83 111.97 178.76 113.55 176.78 C 112.32 180.99 111.37 185.28 110.39 189.57 C 108.03 195.36 106.78 201.79 102.74 206.76 C 101.29 208.49 100.60 210.65 100.09 212.81 C 98.79 212.77 97.49 212.72 96.19 212.67 C 96.40 208.33 96.82 204.00 96.94 199.66 C 97.23 198.47 97.50 197.27 97.75 196.07 C 98.36 193.01 99.06 189.86 101.15 187.42 C 101.26 190.62 101.26 193.87 102.17 196.97 C 104.87 192.53 107.54 188.04 109.52 183.22 Z" />
<path fill="#8e2f0e" d=" M 94.59 187.45 C 96.66 184.39 98.22 179.98 102.27 179.22 C 102.39 179.69 102.62 180.63 102.73 181.11 C 102.31 183.24 101.74 185.33 101.15 187.42 C 99.06 189.86 98.36 193.01 97.75 196.07 C 97.70 194.49 97.62 192.91 97.50 191.33 C 93.55 193.18 91.78 197.31 89.70 200.85 C 88.34 203.18 87.40 205.71 86.59 208.27 C 84.78 211.34 83.11 214.50 81.95 217.88 C 83.55 217.99 85.14 218.09 86.74 218.21 C 85.25 218.82 83.64 218.97 82.06 219.16 C 81.92 218.42 81.64 216.94 81.50 216.21 C 80.82 217.56 80.13 218.90 79.41 220.24 C 78.15 220.88 76.89 221.54 75.61 222.18 C 74.72 222.60 73.82 222.99 72.90 223.36 C 67.99 220.85 64.13 216.65 61.69 211.74 C 61.70 210.88 61.70 209.17 61.71 208.32 C 65.55 212.25 69.01 216.55 73.03 220.32 L 73.44 220.66 C 73.98 220.67 75.07 220.68 75.62 220.69 C 79.96 212.68 84.09 204.54 88.81 196.73 C 90.86 193.71 92.90 190.69 94.59 187.45 Z" />
<path fill="#a00405" d=" M 59.62 180.83 C 62.79 180.45 65.85 181.97 68.92 182.55 C 68.24 182.84 66.88 183.41 66.20 183.70 C 68.06 184.14 69.99 184.43 71.74 185.24 C 73.54 187.19 75.46 189.16 76.45 191.68 C 77.51 194.48 79.86 196.43 81.95 198.45 C 80.99 200.02 80.04 201.59 79.16 203.21 C 78.15 203.29 77.14 203.38 76.12 203.48 C 75.69 201.70 75.32 199.92 74.77 198.17 C 74.31 195.88 71.80 195.10 70.35 193.53 C 68.23 191.22 64.76 191.62 61.93 191.90 C 59.13 193.05 59.64 196.84 57.86 198.94 C 56.98 197.21 56.05 195.50 55.02 193.86 C 54.55 192.33 54.10 190.79 53.77 189.23 C 52.63 185.35 56.48 182.24 59.62 180.83 Z" />
<path fill="#a17726" d=" M 111.87 188.44 C 112.73 185.94 113.52 183.41 114.41 180.93 C 114.61 181.51 115.00 182.69 115.20 183.28 C 115.77 187.63 116.37 192.06 117.99 196.16 C 119.68 199.06 122.57 201.06 124.10 204.08 C 125.87 207.56 128.47 210.48 131.19 213.25 C 128.74 213.31 126.28 213.36 123.88 213.81 C 120.04 209.40 116.09 205.06 112.77 200.24 C 110.28 196.79 111.42 192.33 111.87 188.44 Z" />
<path fill="#450802" d=" M 73.28 218.80 C 78.03 205.99 85.49 194.44 93.65 183.56 C 93.88 184.53 94.36 186.48 94.59 187.45 C 92.90 190.69 90.86 193.71 88.81 196.73 C 84.09 204.54 79.96 212.68 75.62 220.69 C 75.07 220.68 73.98 220.67 73.44 220.66 L 73.03 220.32 L 73.17 219.46 C 73.19 219.30 73.25 218.97 73.28 218.80 Z" />
<path fill="#cbb046" d=" M 154.16 205.48 C 155.75 199.21 156.76 192.82 158.39 186.57 C 159.51 190.79 159.36 195.14 158.67 199.42 C 158.04 203.02 159.13 207.04 157.39 210.36 C 153.84 212.99 148.74 212.86 144.90 210.90 C 148.05 209.41 153.29 209.61 154.16 205.48 Z" />
<path fill="#a4882f" d=" M 161.81 186.91 C 163.23 189.49 163.78 192.41 164.11 195.31 C 164.44 198.96 165.19 202.55 166.13 206.09 C 167.21 208.91 165.23 211.50 164.71 214.20 C 164.75 216.25 165.40 218.23 165.82 220.22 C 162.67 223.94 157.33 223.89 152.90 223.37 C 151.02 222.17 151.48 219.69 151.17 217.78 C 147.31 215.78 142.76 216.90 138.74 215.38 C 145.26 213.87 151.96 215.19 158.52 214.29 C 161.51 212.56 164.26 209.22 163.33 205.54 C 162.34 199.38 161.22 193.18 161.81 186.91 Z" />
<path fill="#926514" d=" M 110.39 189.57 C 110.76 189.28 111.50 188.72 111.87 188.44 C 111.42 192.33 110.28 196.79 112.77 200.24 C 116.09 205.06 120.04 209.40 123.88 213.81 L 122.75 214.54 C 122.17 214.53 121.01 214.51 120.43 214.49 C 114.96 212.95 109.27 213.95 103.69 213.40 C 103.37 211.18 103.05 208.97 102.74 206.76 C 106.78 201.79 108.03 195.36 110.39 189.57 Z" />
<path fill="#8b0304" d=" M 61.93 191.90 C 64.76 191.62 68.23 191.22 70.35 193.53 C 71.80 195.10 74.31 195.88 74.77 198.17 C 75.32 199.92 75.69 201.70 76.12 203.48 C 77.14 203.38 78.15 203.29 79.16 203.21 C 76.98 208.26 73.31 213.14 73.28 218.80 C 73.25 218.97 73.19 219.30 73.17 219.46 C 67.05 213.47 61.11 207.00 57.86 198.94 C 59.64 196.84 59.13 193.05 61.93 191.90 Z" />
<path fill="#806425" d=" M 166.74 191.01 C 169.34 192.85 171.75 194.94 173.97 197.22 C 176.58 200.14 179.48 202.76 182.28 205.49 L 182.48 206.00 C 182.83 207.19 183.13 208.39 183.39 209.60 C 183.06 209.66 182.41 209.80 182.09 209.87 C 179.69 209.44 176.32 206.81 174.46 209.55 C 172.72 212.91 173.77 216.96 173.43 220.62 C 172.62 221.33 171.82 222.05 170.99 222.74 C 166.86 224.11 162.55 224.94 158.23 225.38 C 150.78 225.56 143.08 225.08 136.25 221.83 C 133.94 220.61 132.50 218.26 130.27 216.94 C 127.88 215.83 125.28 215.25 122.75 214.54 L 123.88 213.81 C 126.28 213.36 128.74 213.31 131.19 213.25 C 133.74 213.82 136.21 214.72 138.74 215.38 C 142.76 216.90 147.31 215.78 151.17 217.78 C 151.48 219.69 151.02 222.17 152.90 223.37 C 157.33 223.89 162.67 223.94 165.82 220.22 C 165.40 218.23 164.75 216.25 164.71 214.20 C 165.23 211.50 167.21 208.91 166.13 206.09 C 165.19 202.55 164.44 198.96 164.11 195.31 C 164.52 195.37 165.33 195.49 165.74 195.56 C 166.07 194.04 166.40 192.52 166.74 191.01 Z" />
<path fill="#9f8130" d=" M 174.57 190.98 C 178.23 193.21 180.50 196.89 183.15 200.13 C 182.84 201.91 182.52 203.69 182.28 205.49 C 179.48 202.76 176.58 200.14 173.97 197.22 C 173.92 196.65 173.81 195.50 173.75 194.92 C 174.75 195.54 175.78 196.14 176.80 196.73 C 176.08 194.80 175.36 192.87 174.57 190.98 Z" />
<path fill="#ae6e26" d=" M 89.70 200.85 C 91.78 197.31 93.55 193.18 97.50 191.33 C 97.62 192.91 97.70 194.49 97.75 196.07 C 97.50 197.27 97.23 198.47 96.94 199.66 C 96.44 200.47 95.95 201.28 95.47 202.10 C 95.16 201.33 94.53 199.78 94.22 199.01 C 91.39 201.86 89.54 205.52 86.59 208.27 C 87.40 205.71 88.34 203.18 89.70 200.85 Z" />
<path fill="#eb3333" d=" M 54.01 193.30 L 55.02 193.86 C 56.05 195.50 56.98 197.21 57.86 198.94 C 61.11 207.00 67.05 213.47 73.17 219.46 L 73.03 220.32 C 69.01 216.55 65.55 212.25 61.71 208.32 C 61.33 207.75 60.98 207.17 60.64 206.59 C 58.38 202.19 55.78 197.93 54.01 193.30 Z" />
<path fill="#b98e2e" d=" M 86.59 208.27 C 89.54 205.52 91.39 201.86 94.22 199.01 C 94.53 199.78 95.16 201.33 95.47 202.10 C 93.75 208.06 90.48 213.33 86.74 218.21 C 85.14 218.09 83.55 217.99 81.95 217.88 C 83.11 214.50 84.78 211.34 86.59 208.27 Z" />
<path fill="#80520d" d=" M 95.47 202.10 C 95.95 201.28 96.44 200.47 96.94 199.66 C 96.82 204.00 96.40 208.33 96.19 212.67 C 97.49 212.72 98.79 212.77 100.09 212.81 C 100.60 210.65 101.29 208.49 102.74 206.76 C 103.05 208.97 103.37 211.18 103.69 213.40 C 109.27 213.95 114.96 212.95 120.43 214.49 C 116.92 215.01 113.34 215.11 109.87 215.89 C 107.38 216.42 106.84 220.19 103.97 219.82 C 96.88 219.99 90.06 222.87 82.92 222.06 C 81.44 222.19 80.39 221.19 79.41 220.24 C 80.13 218.90 80.82 217.56 81.50 216.21 C 81.64 216.94 81.92 218.42 82.06 219.16 C 83.64 218.97 85.25 218.82 86.74 218.21 C 90.48 213.33 93.75 208.06 95.47 202.10 Z" />
<path fill="#a17f1b" d=" M 183.15 200.13 C 186.62 203.70 191.68 205.20 194.92 209.04 C 194.65 209.15 194.12 209.36 193.86 209.47 C 193.95 211.45 193.85 213.43 192.03 214.66 C 188.20 212.57 185.36 209.20 182.48 206.00 L 182.28 205.49 C 182.52 203.69 182.84 201.91 183.15 200.13 Z" />
<path fill="#905f17" d=" M 60.64 206.59 C 60.98 207.17 61.33 207.75 61.71 208.32 C 61.70 209.17 61.70 210.88 61.69 211.74 C 64.13 216.65 67.99 220.85 72.90 223.36 C 71.50 223.48 70.03 223.64 68.67 223.15 C 63.60 221.43 58.78 219.08 53.89 216.94 C 52.20 216.95 50.55 217.30 48.89 217.55 C 49.55 215.82 50.35 213.34 52.63 213.44 L 52.54 212.09 C 53.06 212.27 54.10 212.62 54.62 212.79 C 54.57 212.24 54.46 211.14 54.40 210.59 C 54.98 210.61 56.14 210.65 56.72 210.66 L 56.47 209.14 C 56.97 209.31 57.97 209.64 58.46 209.80 C 58.15 207.94 58.87 207.19 60.64 207.53 L 60.64 206.59 Z" />
<path fill="#855d0b" d=" M 182.48 206.00 C 185.36 209.20 188.20 212.57 192.03 214.66 C 193.85 213.43 193.95 211.45 193.86 209.47 C 194.12 209.36 194.65 209.15 194.92 209.04 C 196.39 210.55 198.03 211.89 199.85 212.96 C 200.22 212.85 200.95 212.65 201.31 212.54 L 202.51 212.21 C 203.02 213.26 203.58 214.30 204.06 215.38 C 199.69 216.45 195.92 218.92 192.05 221.10 C 191.05 220.92 190.06 220.74 189.07 220.56 C 188.77 219.15 188.41 217.68 187.10 216.86 C 184.73 215.09 183.20 212.56 182.09 209.87 C 182.41 209.80 183.06 209.66 183.39 209.60 C 183.13 208.39 182.83 207.19 182.48 206.00 Z" />
<path fill="#674710" d=" M 174.46 209.55 C 176.32 206.81 179.69 209.44 182.09 209.87 C 183.20 212.56 184.73 215.09 187.10 216.86 C 188.41 217.68 188.77 219.15 189.07 220.56 C 190.06 220.74 191.05 220.92 192.05 221.10 C 186.44 224.52 179.23 224.99 174.61 230.02 C 171.69 230.74 168.75 231.37 165.77 231.82 C 163.87 232.03 161.96 232.25 160.06 232.46 C 158.20 232.68 156.34 232.85 154.49 233.03 C 160.21 229.26 167.06 227.78 173.31 225.12 C 173.45 224.74 173.72 224.00 173.86 223.62 C 173.14 223.40 171.71 222.96 170.99 222.74 C 171.82 222.05 172.62 221.33 173.43 220.62 C 173.77 216.96 172.72 212.91 174.46 209.55 Z" />
<path fill="#72490d" d=" M 109.87 215.89 C 113.34 215.11 116.92 215.01 120.43 214.49 C 121.01 214.51 122.17 214.53 122.75 214.54 C 125.28 215.25 127.88 215.83 130.27 216.94 C 132.50 218.26 133.94 220.61 136.25 221.83 C 143.08 225.08 150.78 225.56 158.23 225.38 C 153.36 225.93 148.47 226.26 143.57 226.38 C 129.25 226.36 115.21 223.13 100.95 222.27 C 97.96 221.79 96.06 225.35 93.05 224.71 C 87.20 223.76 80.72 226.17 75.61 222.18 C 76.89 221.54 78.15 220.88 79.41 220.24 C 80.39 221.19 81.44 222.19 82.92 222.06 C 90.06 222.87 96.88 219.99 103.97 219.82 C 106.84 220.19 107.38 216.42 109.87 215.89 Z" />
<path fill="#563203" d=" M 192.05 221.10 C 195.92 218.92 199.69 216.45 204.06 215.38 C 203.99 216.96 203.96 218.54 203.97 220.13 C 199.28 221.86 195.02 224.56 190.32 226.25 C 185.25 228.12 179.91 229.07 174.61 230.02 C 179.23 224.99 186.44 224.52 192.05 221.10 Z" />
<path fill="#5d3606" d=" M 48.89 217.55 C 50.55 217.30 52.20 216.95 53.89 216.94 C 58.78 219.08 63.60 221.43 68.67 223.15 C 70.03 223.64 71.50 223.48 72.90 223.36 C 73.82 222.99 74.72 222.60 75.61 222.18 C 80.72 226.17 87.20 223.76 93.05 224.71 C 96.06 225.35 97.96 221.79 100.95 222.27 C 115.21 223.13 129.25 226.36 143.57 226.38 L 144.42 227.29 C 136.56 227.44 128.67 227.67 120.85 226.70 C 115.93 226.09 111.02 225.31 106.06 225.25 C 107.36 226.89 108.65 228.54 109.91 230.22 C 105.22 230.90 100.61 229.44 95.98 228.99 C 90.44 228.16 84.65 228.80 79.36 226.65 C 75.29 224.95 70.75 225.95 66.60 224.63 C 61.37 223.13 56.43 220.81 51.29 219.02 C 52.56 220.77 53.82 222.52 55.08 224.27 C 54.23 224.06 52.52 223.63 51.67 223.41 C 51.27 223.80 50.48 224.60 50.08 224.99 C 49.87 225.23 49.45 225.72 49.24 225.96 C 49.07 223.16 49.04 220.35 48.89 217.55 Z" />
<path fill="#3d2303" d=" M 51.29 219.02 C 56.43 220.81 61.37 223.13 66.60 224.63 C 70.75 225.95 75.29 224.95 79.36 226.65 C 84.65 228.80 90.44 228.16 95.98 228.99 C 100.61 229.44 105.22 230.90 109.91 230.22 C 108.65 228.54 107.36 226.89 106.06 225.25 C 111.02 225.31 115.93 226.09 120.85 226.70 C 128.67 227.67 136.56 227.44 144.42 227.29 C 149.94 227.40 155.47 227.29 161.00 227.41 C 156.57 228.77 150.86 228.85 148.47 233.54 C 137.78 234.42 127.05 234.45 116.33 233.99 C 95.65 233.20 74.71 231.28 55.08 224.27 C 53.82 222.52 52.56 220.77 51.29 219.02 Z" />
<path fill="#908139" d=" M 190.32 226.25 C 195.02 224.56 199.28 221.86 203.97 220.13 C 204.04 221.50 204.10 222.88 204.15 224.26 C 203.65 224.65 202.64 225.43 202.14 225.82 C 201.98 225.58 201.68 225.10 201.52 224.87 C 201.24 224.45 200.68 223.63 200.40 223.21 C 193.40 227.74 185.27 229.81 177.20 231.49 C 173.41 231.87 169.58 231.57 165.77 231.82 C 168.75 231.37 171.69 230.74 174.61 230.02 C 179.91 229.07 185.25 228.12 190.32 226.25 Z" />
<path fill="#4f3c12" d=" M 158.23 225.38 C 162.55 224.94 166.86 224.11 170.99 222.74 C 171.71 222.96 173.14 223.40 173.86 223.62 C 173.72 224.00 173.45 224.74 173.31 225.12 C 167.06 227.78 160.21 229.26 154.49 233.03 C 152.49 233.27 150.48 233.42 148.47 233.54 C 150.86 228.85 156.57 228.77 161.00 227.41 C 155.47 227.29 149.94 227.40 144.42 227.29 L 143.57 226.38 C 148.47 226.26 153.36 225.93 158.23 225.38 Z" />
<path fill="#d2c159" d=" M 200.40 223.21 C 200.68 223.63 201.24 224.45 201.52 224.87 C 192.48 229.94 182.53 233.15 172.35 234.97 C 167.79 235.45 163.32 236.47 158.79 237.14 C 160.11 236.48 161.69 236.03 162.65 234.84 C 162.57 233.45 160.95 233.20 160.06 232.46 C 161.96 232.25 163.87 232.03 165.77 231.82 C 169.58 231.57 173.41 231.87 177.20 231.49 C 185.27 229.81 193.40 227.74 200.40 223.21 Z" />
<path fill="#c4b354" d=" M 50.08 224.99 C 50.48 224.60 51.27 223.80 51.67 223.41 C 52.52 223.63 54.23 224.06 55.08 224.27 C 74.71 231.28 95.65 233.20 116.33 233.99 C 112.31 234.96 108.19 234.61 104.12 234.18 C 103.84 234.99 103.26 236.60 102.97 237.40 C 90.57 236.69 78.11 235.30 66.15 231.84 C 60.51 230.27 55.36 227.45 50.08 224.99 Z" />
<path fill="#a48c15" d=" M 201.52 224.87 C 201.68 225.10 201.98 225.58 202.14 225.82 C 201.34 226.76 200.94 228.19 199.74 228.70 C 188.87 233.22 177.67 237.70 165.79 238.38 C 167.96 237.21 170.09 235.98 172.35 234.97 C 182.53 233.15 192.48 229.94 201.52 224.87 Z" />
<path fill="#655109" d=" M 202.14 225.82 C 202.64 225.43 203.65 224.65 204.15 224.26 C 203.82 226.36 204.68 229.19 202.57 230.59 C 198.33 234.03 193.21 236.24 188.02 237.84 C 177.81 240.84 167.24 242.92 156.60 243.29 C 144.56 240.70 131.97 243.83 119.89 241.63 C 120.69 241.34 122.30 240.76 123.10 240.47 C 130.40 240.11 137.95 241.33 145.08 239.58 C 145.25 239.77 145.59 240.16 145.76 240.36 C 152.47 240.93 159.20 239.58 165.79 238.38 C 177.67 237.70 188.87 233.22 199.74 228.70 C 200.94 228.19 201.34 226.76 202.14 225.82 Z" />
<path fill="#594405" d=" M 49.24 225.96 C 49.45 225.72 49.87 225.23 50.08 224.99 C 51.52 227.03 52.21 230.01 54.75 231.02 C 59.60 233.18 64.45 235.63 69.85 235.93 C 85.50 239.23 101.49 241.34 117.50 240.50 C 119.36 240.41 121.23 240.44 123.10 240.47 C 122.30 240.76 120.69 241.34 119.89 241.63 C 112.57 241.77 105.25 241.32 97.94 241.40 C 96.25 241.23 94.89 242.27 93.55 243.12 C 83.64 242.38 73.77 240.68 64.25 237.84 C 59.27 236.19 54.09 234.43 50.10 230.90 C 48.78 229.81 48.25 227.32 49.24 225.96 Z" />
<path fill="#a2880e" d=" M 50.08 224.99 C 55.36 227.45 60.51 230.27 66.15 231.84 C 78.11 235.30 90.57 236.69 102.97 237.40 C 107.40 237.98 111.84 238.51 116.30 238.86 L 117.50 240.50 C 101.49 241.34 85.50 239.23 69.85 235.93 C 64.45 235.63 59.60 233.18 54.75 231.02 C 52.21 230.01 51.52 227.03 50.08 224.99 Z" />
<path fill="#e4d996" d=" M 116.33 233.99 C 127.05 234.45 137.78 234.42 148.47 233.54 C 150.48 233.42 152.49 233.27 154.49 233.03 C 156.34 232.85 158.20 232.68 160.06 232.46 C 160.95 233.20 162.57 233.45 162.65 234.84 C 161.69 236.03 160.11 236.48 158.79 237.14 C 157.33 237.31 155.87 237.39 154.42 237.58 C 154.42 237.01 154.42 235.88 154.43 235.32 C 140.92 235.46 127.45 236.62 113.94 236.46 C 125.07 239.24 136.57 237.17 147.84 238.34 C 147.32 238.85 146.28 239.85 145.76 240.36 C 145.59 240.16 145.25 239.77 145.08 239.58 C 137.95 241.33 130.40 240.11 123.10 240.47 C 121.23 240.44 119.36 240.41 117.50 240.50 L 116.30 238.86 C 111.84 238.51 107.40 237.98 102.97 237.40 C 103.26 236.60 103.84 234.99 104.12 234.18 C 108.19 234.61 112.31 234.96 116.33 233.99 Z" />
<path fill="#f6f1cf" d=" M 113.94 236.46 C 127.45 236.62 140.92 235.46 154.43 235.32 C 154.42 235.88 154.42 237.01 154.42 237.58 C 152.25 238.00 150.07 238.51 147.84 238.34 C 136.57 237.17 125.07 239.24 113.94 236.46 Z" />
<path fill="#c0ad2d" d=" M 158.79 237.14 C 163.32 236.47 167.79 235.45 172.35 234.97 C 170.09 235.98 167.96 237.21 165.79 238.38 C 159.20 239.58 152.47 240.93 145.76 240.36 C 146.28 239.85 147.32 238.85 147.84 238.34 C 150.07 238.51 152.25 238.00 154.42 237.58 C 155.87 237.39 157.33 237.31 158.79 237.14 Z" />
<path fill="#543404" d=" M 93.55 243.12 C 94.89 242.27 96.25 241.23 97.94 241.40 C 105.25 241.32 112.57 241.77 119.89 241.63 C 131.97 243.83 144.56 240.70 156.60 243.29 C 150.49 244.23 144.29 244.36 138.12 244.48 C 134.88 244.59 131.64 244.70 128.40 244.83 C 126.63 244.95 125.23 245.98 123.97 247.14 C 123.84 246.51 123.58 245.25 123.45 244.62 C 113.47 244.59 103.47 244.27 93.55 243.12 Z" />
<path fill="#68582e" d=" M 123.97 247.14 C 125.23 245.98 126.63 244.95 128.40 244.83 C 128.50 247.94 129.49 250.89 130.86 253.67 C 127.33 253.22 125.15 250.22 123.97 247.14 Z" />
<path fill="#897b40" d=" M 128.40 244.83 C 131.64 244.70 134.88 244.59 138.12 244.48 C 137.28 248.39 135.26 252.89 130.86 253.67 C 129.49 250.89 128.50 247.94 128.40 244.83 Z" />
</svg>
